<?xml version="1.0" encoding="UTF-8" standalone="no"?>
<!DOCTYPE svg PUBLIC "-//W3C//DTD SVG 1.1//EN" "http://www.w3.org/Graphics/SVG/1.1/DTD/svg11.dtd">
<svg width="100%" height="100%" viewBox="0 0 1426 1426" version="1.1" xmlns="http://www.w3.org/2000/svg" xmlns:xlink="http://www.w3.org/1999/xlink" xml:space="preserve" xmlns:serif="http://www.serif.com/" style="fill-rule:evenodd;clip-rule:evenodd;stroke-linecap:round;stroke-linejoin:round;stroke-miterlimit:1.5;">
    <g transform="matrix(1,0,0,1,-10389.5,-10743.9)">
        <circle cx="11102.4" cy="11456.7" r="708.661" style="fill:white;stroke:white;stroke-width:8.33px;"/>
        <g transform="matrix(1.14189,0,0,1.14189,10395.4,10731.3)">
            <g>
                <g transform="matrix(0.897865,0,0,0.897865,619.119,1152.45)">
                    <circle cx="0" cy="-96" r="96" style="fill:rgb(247,147,34);"/>
                </g>
                <g transform="matrix(-0.897865,0,0,0.897865,619.119,1152.45)">
                    <circle cx="0" cy="-96" r="96" style="fill:none;stroke:rgb(247,147,34);stroke-width:4.06px;stroke-linecap:butt;stroke-linejoin:miter;stroke-miterlimit:4;"/>
                </g>
                <g transform="matrix(0.897865,0,0,0.897865,403.631,1088.88)">
                    <circle cx="0" cy="-90" r="90" style="fill:rgb(247,147,34);"/>
                </g>
                <g transform="matrix(-0.897865,0,0,0.897865,403.631,1088.88)">
                    <circle cx="0" cy="-90" r="90" style="fill:none;stroke:rgb(247,147,34);stroke-width:4.06px;stroke-linecap:butt;stroke-linejoin:miter;stroke-miterlimit:4;"/>
                </g>
                <g transform="matrix(0.897865,0,0,0.897865,245.248,926.189)">
                    <circle cx="0" cy="-84" r="84" style="fill:rgb(247,147,34);"/>
                </g>
                <g transform="matrix(-0.897865,0,0,0.897865,245.248,926.189)">
                    <circle cx="0" cy="-84" r="84" style="fill:none;stroke:rgb(247,147,34);stroke-width:4.06px;stroke-linecap:butt;stroke-linejoin:miter;stroke-miterlimit:4;"/>
                </g>
                <g transform="matrix(0.897865,0,0,0.897865,188.144,705.314)">
                    <circle cx="0" cy="-78" r="78" style="fill:rgb(247,147,34);"/>
                </g>
                <g transform="matrix(-0.897865,0,0,0.897865,188.144,705.314)">
                    <circle cx="0" cy="-78" r="78" style="fill:none;stroke:rgb(247,147,34);stroke-width:4.06px;stroke-linecap:butt;stroke-linejoin:miter;stroke-miterlimit:4;"/>
                </g>
                <g transform="matrix(0.897865,0,0,0.897865,245.248,483.361)">
                    <circle cx="0" cy="-72" r="72" style="fill:rgb(247,147,34);"/>
                </g>
                <g transform="matrix(-0.897865,0,0,0.897865,245.248,483.361)">
                    <circle cx="0" cy="-72" r="72" style="fill:none;stroke:rgb(247,147,34);stroke-width:4.06px;stroke-linecap:butt;stroke-linejoin:miter;stroke-miterlimit:4;"/>
                </g>
                <g transform="matrix(0.897865,0,0,0.897865,402.554,320.668)">
                    <ellipse cx="0" cy="-66" rx="65.999" ry="66" style="fill:rgb(247,147,34);"/>
                </g>
                <g transform="matrix(-0.897865,0,0,0.897865,402.554,320.668)">
                    <ellipse cx="0" cy="-66" rx="65.999" ry="66" style="fill:none;stroke:rgb(247,147,34);stroke-width:4.06px;stroke-linecap:butt;stroke-linejoin:miter;stroke-miterlimit:4;"/>
                </g>
                <g transform="matrix(0.897865,0,0,0.897865,618.042,290.5)">
                    <ellipse cx="-0.001" cy="-96" rx="96.001" ry="96" style="fill:rgb(20,125,190);"/>
                </g>
                <g transform="matrix(-0.897865,0,0,0.897865,618.041,290.5)">
                    <ellipse cx="-0.001" cy="-96" rx="96.001" ry="96" style="fill:none;stroke:rgb(20,125,190);stroke-width:4.06px;stroke-linecap:butt;stroke-linejoin:miter;stroke-miterlimit:4;"/>
                </g>
                <g transform="matrix(0.897865,0,0,0.897865,834.606,342.217)">
                    <circle cx="0" cy="-90" r="90" style="fill:rgb(20,125,190);"/>
                </g>
                <g transform="matrix(-0.897865,0,0,0.897865,834.606,342.217)">
                    <circle cx="0" cy="-90" r="90" style="fill:none;stroke:rgb(20,125,190);stroke-width:4.06px;stroke-linecap:butt;stroke-linejoin:miter;stroke-miterlimit:4;"/>
                </g>
                <g transform="matrix(0.897865,0,0,0.897865,991.912,494.136)">
                    <ellipse cx="0" cy="-84" rx="84" ry="84" style="fill:rgb(20,125,190);"/>
                </g>
                <g transform="matrix(-0.897865,0,0,0.897865,991.912,494.136)">
                    <ellipse cx="0" cy="-84" rx="84" ry="84" style="fill:none;stroke:rgb(20,125,190);stroke-width:4.06px;stroke-linecap:butt;stroke-linejoin:miter;stroke-miterlimit:4;"/>
                </g>
                <g transform="matrix(0.897865,0,0,0.897865,1050.09,704.237)">
                    <ellipse cx="0" cy="-78.001" rx="78" ry="78.001" style="fill:rgb(20,125,190);"/>
                </g>
                <g transform="matrix(-0.897865,0,0,0.897865,1050.09,704.237)">
                    <ellipse cx="0" cy="-78.001" rx="78" ry="78.001" style="fill:none;stroke:rgb(20,125,190);stroke-width:4.06px;stroke-linecap:butt;stroke-linejoin:miter;stroke-miterlimit:4;"/>
                </g>
                <g transform="matrix(0.897865,0,0,0.897865,991.912,914.337)">
                    <circle cx="0" cy="-72" r="72" style="fill:rgb(20,125,190);"/>
                </g>
                <g transform="matrix(-0.897865,0,0,0.897865,991.912,914.337)">
                    <circle cx="0" cy="-72" r="72" style="fill:none;stroke:rgb(20,125,190);stroke-width:4.06px;stroke-linecap:butt;stroke-linejoin:miter;stroke-miterlimit:4;"/>
                </g>
                <g transform="matrix(0.897865,0,0,0.897865,833.53,1067.33)">
                    <circle cx="-0.001" cy="-66" r="66" style="fill:rgb(20,125,190);"/>
                </g>
                <g transform="matrix(-0.897865,0,0,0.897865,833.528,1067.33)">
                    <circle cx="-0.001" cy="-66" r="66" style="fill:none;stroke:rgb(20,125,190);stroke-width:4.06px;stroke-linecap:butt;stroke-linejoin:miter;stroke-miterlimit:4;"/>
                </g>
                <g transform="matrix(0.897865,0,0,0.897865,358.379,758.108)">
                    <circle cx="0" cy="-60" r="60" style="fill:rgb(247,147,34);"/>
                </g>
                <g transform="matrix(-0.897865,0,0,0.897865,358.379,758.108)">
                    <circle cx="0" cy="-60" r="60" style="fill:none;stroke:rgb(247,147,34);stroke-width:4.06px;stroke-linecap:butt;stroke-linejoin:miter;stroke-miterlimit:4;"/>
                </g>
                <g transform="matrix(0.897865,0,0,0.897865,358.379,614.81)">
                    <ellipse cx="0.001" cy="-55.201" rx="55.2" ry="55.201" style="fill:rgb(247,147,34);"/>
                </g>
                <g transform="matrix(-0.897865,0,0,0.897865,358.38,614.81)">
                    <ellipse cx="0.001" cy="-55.201" rx="55.2" ry="55.201" style="fill:none;stroke:rgb(247,147,34);stroke-width:4.06px;stroke-linecap:butt;stroke-linejoin:miter;stroke-miterlimit:4;"/>
                </g>
                <g transform="matrix(0.897865,0,0,0.897865,428.412,489.826)">
                    <ellipse cx="0.001" cy="-50.4" rx="50.4" ry="50.4" style="fill:rgb(247,147,34);"/>
                </g>
                <g transform="matrix(-0.897865,0,0,0.897865,428.413,489.826)">
                    <ellipse cx="0.001" cy="-50.4" rx="50.4" ry="50.4" style="fill:none;stroke:rgb(247,147,34);stroke-width:4.06px;stroke-linecap:butt;stroke-linejoin:miter;stroke-miterlimit:4;"/>
                </g>
                <g transform="matrix(0.897865,0,0,0.897865,549.085,415.483)">
                    <circle cx="0" cy="-45.6" r="45.6" style="fill:rgb(247,147,34);"/>
                </g>
                <g transform="matrix(-0.897865,0,0,0.897865,549.085,415.483)">
                    <circle cx="0" cy="-45.6" r="45.6" style="fill:none;stroke:rgb(247,147,34);stroke-width:4.06px;stroke-linecap:butt;stroke-linejoin:miter;stroke-miterlimit:4;"/>
                </g>
                <g transform="matrix(0.897865,0,0,0.897865,688.076,411.174)">
                    <ellipse cx="-0.001" cy="-40.801" rx="40.8" ry="40.801" style="fill:rgb(247,147,34);"/>
                </g>
                <g transform="matrix(-0.897865,0,0,0.897865,688.074,411.174)">
                    <ellipse cx="-0.001" cy="-40.801" rx="40.8" ry="40.801" style="fill:none;stroke:rgb(247,147,34);stroke-width:4.06px;stroke-linecap:butt;stroke-linejoin:miter;stroke-miterlimit:4;"/>
                </g>
                <g transform="matrix(0.897865,0,0,0.897865,808.747,476.897)">
                    <circle cx="0" cy="-36" r="36" style="fill:rgb(247,147,34);"/>
                </g>
                <g transform="matrix(-0.897865,0,0,0.897865,808.747,476.897)">
                    <circle cx="0" cy="-36" r="36" style="fill:none;stroke:rgb(247,147,34);stroke-width:4.06px;stroke-linecap:butt;stroke-linejoin:miter;stroke-miterlimit:4;"/>
                </g>
                <g transform="matrix(0.897865,0,0,0.897865,878.782,619.119)">
                    <ellipse cx="-0" cy="-60" rx="60.001" ry="60" style="fill:rgb(20,125,190);"/>
                </g>
                <g transform="matrix(-0.897865,0,0,0.897865,878.781,619.119)">
                    <ellipse cx="-0" cy="-60" rx="60.001" ry="60" style="fill:none;stroke:rgb(20,125,190);stroke-width:4.06px;stroke-linecap:butt;stroke-linejoin:miter;stroke-miterlimit:4;"/>
                </g>
                <g transform="matrix(0.897865,0,0,0.897865,878.782,753.798)">
                    <ellipse cx="-0.001" cy="-55.2" rx="55.2" ry="55.2" style="fill:rgb(20,125,190);"/>
                </g>
                <g transform="matrix(-0.897865,0,0,0.897865,878.781,753.798)">
                    <ellipse cx="-0.001" cy="-55.2" rx="55.2" ry="55.2" style="fill:none;stroke:rgb(20,125,190);stroke-width:4.06px;stroke-linecap:butt;stroke-linejoin:miter;stroke-miterlimit:4;"/>
                </g>
                <g transform="matrix(0.897865,0,0,0.897865,808.747,870.162)">
                    <ellipse cx="0.001" cy="-50.4" rx="50.4" ry="50.4" style="fill:rgb(20,125,190);"/>
                </g>
                <g transform="matrix(-0.897865,0,0,0.897865,808.748,870.162)">
                    <ellipse cx="0.001" cy="-50.4" rx="50.4" ry="50.4" style="fill:none;stroke:rgb(20,125,190);stroke-width:4.06px;stroke-linecap:butt;stroke-linejoin:miter;stroke-miterlimit:4;"/>
                </g>
                <g transform="matrix(0.897865,0,0,0.897865,688.076,935.885)">
                    <circle cx="0" cy="-45.6" r="45.6" style="fill:rgb(20,125,190);"/>
                </g>
                <g transform="matrix(-0.897865,0,0,0.897865,688.076,935.885)">
                    <circle cx="0" cy="-45.6" r="45.6" style="fill:none;stroke:rgb(20,125,190);stroke-width:4.06px;stroke-linecap:butt;stroke-linejoin:miter;stroke-miterlimit:4;"/>
                </g>
                <g transform="matrix(0.897865,0,0,0.897865,549.085,931.576)">
                    <ellipse cx="0.001" cy="-40.8" rx="40.801" ry="40.8" style="fill:rgb(20,125,190);"/>
                </g>
                <g transform="matrix(-0.897865,0,0,0.897865,549.086,931.576)">
                    <ellipse cx="0.001" cy="-40.8" rx="40.801" ry="40.8" style="fill:none;stroke:rgb(20,125,190);stroke-width:4.06px;stroke-linecap:butt;stroke-linejoin:miter;stroke-miterlimit:4;"/>
                </g>
                <g transform="matrix(0.897865,0,0,0.897865,428.412,857.232)">
                    <circle cx="0" cy="-36" r="36" style="fill:rgb(20,125,190);"/>
                </g>
                <g transform="matrix(-0.897865,0,0,0.897865,428.412,857.232)">
                    <circle cx="0" cy="-36" r="36" style="fill:none;stroke:rgb(20,125,190);stroke-width:4.06px;stroke-linecap:butt;stroke-linejoin:miter;stroke-miterlimit:4;"/>
                </g>
                <g transform="matrix(0.897865,0,0,0.897865,537.234,527.537)">
                    <circle cx="0" cy="-36" r="36" style="fill:rgb(247,147,34);"/>
                </g>
                <g transform="matrix(-0.897865,0,0,0.897865,537.234,527.537)">
                    <circle cx="0" cy="-36" r="36" style="fill:none;stroke:rgb(247,147,34);stroke-width:4.06px;stroke-linecap:butt;stroke-linejoin:miter;stroke-miterlimit:4;"/>
                </g>
                <g transform="matrix(0.897865,0,0,0.897865,619.119,502.756)">
                    <ellipse cx="0" cy="-32.401" rx="32.4" ry="32.401" style="fill:rgb(247,147,34);"/>
                </g>
                <g transform="matrix(-0.897865,0,0,0.897865,619.119,502.756)">
                    <ellipse cx="0" cy="-32.401" rx="32.4" ry="32.401" style="fill:none;stroke:rgb(247,147,34);stroke-width:4.06px;stroke-linecap:butt;stroke-linejoin:miter;stroke-miterlimit:4;"/>
                </g>
                <g transform="matrix(0.897865,0,0,0.897865,699.927,521.073)">
                    <ellipse cx="0" cy="-28.801" rx="28.8" ry="28.801" style="fill:rgb(247,147,34);"/>
                </g>
                <g transform="matrix(-0.897865,0,0,0.897865,699.927,521.073)">
                    <ellipse cx="0" cy="-28.801" rx="28.8" ry="28.801" style="fill:none;stroke:rgb(247,147,34);stroke-width:4.06px;stroke-linecap:butt;stroke-linejoin:miter;stroke-miterlimit:4;"/>
                </g>
                <g transform="matrix(0.897865,0,0,0.897865,758.108,576.021)">
                    <circle cx="0" cy="-25.2" r="25.2" style="fill:rgb(247,147,34);"/>
                </g>
                <g transform="matrix(-0.897865,0,0,0.897865,758.108,576.021)">
                    <circle cx="0" cy="-25.2" r="25.2" style="fill:none;stroke:rgb(247,147,34);stroke-width:4.06px;stroke-linecap:butt;stroke-linejoin:miter;stroke-miterlimit:4;"/>
                </g>
                <g transform="matrix(0.897865,0,0,0.897865,780.734,653.596)">
                    <ellipse cx="0" cy="-21.599" rx="21.6" ry="21.599" style="fill:rgb(247,147,34);"/>
                </g>
                <g transform="matrix(-0.897865,0,0,0.897865,780.734,653.596)">
                    <ellipse cx="0" cy="-21.599" rx="21.6" ry="21.599" style="fill:none;stroke:rgb(247,147,34);stroke-width:4.06px;stroke-linecap:butt;stroke-linejoin:miter;stroke-miterlimit:4;"/>
                </g>
                <g transform="matrix(0.897865,0,0,0.897865,758.108,731.172)">
                    <circle cx="0" cy="-18" r="18" style="fill:rgb(247,147,34);"/>
                </g>
                <g transform="matrix(-0.897865,0,0,0.897865,758.108,731.172)">
                    <circle cx="0" cy="-18" r="18" style="fill:none;stroke:rgb(247,147,34);stroke-width:4.06px;stroke-linecap:butt;stroke-linejoin:miter;stroke-miterlimit:4;"/>
                </g>
                <g transform="matrix(0.897865,0,0,0.897865,699.927,806.593)">
                    <circle cx="0" cy="-36" r="36" style="fill:rgb(20,125,190);"/>
                </g>
                <g transform="matrix(-0.897865,0,0,0.897865,699.927,806.593)">
                    <circle cx="0" cy="-36" r="36" style="fill:none;stroke:rgb(20,125,190);stroke-width:4.06px;stroke-linecap:butt;stroke-linejoin:miter;stroke-miterlimit:4;"/>
                </g>
                <g transform="matrix(0.897865,0,0,0.897865,619.119,825.987)">
                    <ellipse cx="0" cy="-32.401" rx="32.4" ry="32.401" style="fill:rgb(20,125,190);"/>
                </g>
                <g transform="matrix(-0.897865,0,0,0.897865,619.119,825.987)">
                    <ellipse cx="0" cy="-32.401" rx="32.4" ry="32.401" style="fill:none;stroke:rgb(20,125,190);stroke-width:4.06px;stroke-linecap:butt;stroke-linejoin:miter;stroke-miterlimit:4;"/>
                </g>
                <g transform="matrix(0.897865,0,0,0.897865,538.311,800.128)">
                    <circle cx="0" cy="-28.8" r="28.8" style="fill:rgb(20,125,190);"/>
                </g>
                <g transform="matrix(-0.897865,0,0,0.897865,538.311,800.128)">
                    <circle cx="0" cy="-28.8" r="28.8" style="fill:none;stroke:rgb(20,125,190);stroke-width:4.06px;stroke-linecap:butt;stroke-linejoin:miter;stroke-miterlimit:4;"/>
                </g>
                <g transform="matrix(0.897865,0,0,0.897865,479.052,738.714)">
                    <circle cx="0.001" cy="-25.2" r="25.2" style="fill:rgb(20,125,190);"/>
                </g>
                <g transform="matrix(-0.897865,0,0,0.897865,479.054,738.714)">
                    <circle cx="0.001" cy="-25.2" r="25.2" style="fill:none;stroke:rgb(20,125,190);stroke-width:4.06px;stroke-linecap:butt;stroke-linejoin:miter;stroke-miterlimit:4;"/>
                </g>
                <g transform="matrix(0.897865,0,0,0.897865,457.503,654.674)">
                    <ellipse cx="0" cy="-21.6" rx="21.6" ry="21.6" style="fill:rgb(20,125,190);"/>
                </g>
                <g transform="matrix(-0.897865,0,0,0.897865,457.503,654.674)">
                    <ellipse cx="0" cy="-21.6" rx="21.6" ry="21.6" style="fill:none;stroke:rgb(20,125,190);stroke-width:4.06px;stroke-linecap:butt;stroke-linejoin:miter;stroke-miterlimit:4;"/>
                </g>
                <g transform="matrix(0.897865,0,0,0.897865,479.052,570.634)">
                    <circle cx="0" cy="-18" r="18" style="fill:rgb(20,125,190);"/>
                </g>
                <g transform="matrix(-0.897865,0,0,0.897865,479.052,570.634)">
                    <circle cx="0" cy="-18" r="18" style="fill:none;stroke:rgb(20,125,190);stroke-width:4.06px;stroke-linecap:butt;stroke-linejoin:miter;stroke-miterlimit:4;"/>
                </g>
            </g>
        </g>
    </g>
</svg>
